<svg width="104" height="26" viewBox="0 0 104 26" fill="none" xmlns="http://www.w3.org/2000/svg">
<g filter="url(#filter0_d_1_576)">
<path d="M4.247 14L9.263 0.623999H11.714L16.73 14H13.994L12.892 10.903H8.009L6.926 14H4.247ZM8.769 8.737H12.151L10.46 3.892L8.769 8.737ZM26.6597 7.673V14H24.1517V8.281C24.1517 7.673 23.9997 7.24867 23.6957 7.008C23.4044 6.75467 23.0497 6.628 22.6317 6.628C21.8591 6.628 21.2511 6.96367 20.8077 7.635V14H18.2997V4.519H20.8077V5.583C21.5171 4.709 22.4671 4.272 23.6577 4.272C24.6331 4.272 25.3741 4.56967 25.8807 5.165C26.4001 5.76033 26.6597 6.59633 26.6597 7.673ZM32.5456 14.247C31.7222 14.247 31.0446 14 30.5126 13.506C29.9932 12.9993 29.7336 12.271 29.7336 11.321V6.647H28.1376V4.519H29.7336V1.916H32.2416V4.519H34.5786V6.647H32.2416V10.599C32.2416 11.0803 32.3302 11.4287 32.5076 11.644C32.6849 11.8467 32.9762 11.948 33.3816 11.948C33.7489 11.948 34.1352 11.853 34.5406 11.663V13.81C34.0212 14.1013 33.3562 14.247 32.5456 14.247ZM37.8956 17.895C37.1862 17.895 36.6099 17.8 36.1666 17.61V15.349C36.5212 15.5517 36.9392 15.653 37.4206 15.653C37.8892 15.653 38.2566 15.4947 38.5226 15.178C38.8012 14.874 39.0546 14.3673 39.2826 13.658L35.6916 4.519H38.3896L40.4796 10.884L42.4936 4.519H45.1156L41.2966 14.988C40.5999 16.926 39.4662 17.895 37.8956 17.895ZM48.4704 9.896V7.54H53.7144V9.896H48.4704ZM64.7862 14.266C62.9115 14.266 61.3725 13.6327 60.1692 12.366C58.9785 11.0867 58.3832 9.41467 58.3832 7.35C58.3832 5.31067 58.9785 3.65133 60.1692 2.372C61.3598 1.08 62.8925 0.433999 64.7672 0.433999C66.0338 0.433999 67.0662 0.680999 67.8642 1.175V3.778C66.9775 3.17 65.9958 2.866 64.9192 2.866C63.7665 2.866 62.8228 3.284 62.0882 4.12C61.3662 4.956 61.0052 6.03267 61.0052 7.35C61.0052 8.66733 61.3788 9.744 62.1262 10.58C62.8862 11.416 63.8552 11.834 65.0332 11.834C66.1858 11.834 67.2055 11.473 68.0922 10.751V13.354C67.1802 13.962 66.0782 14.266 64.7862 14.266ZM74.3552 4.272C75.7485 4.272 76.8759 4.747 77.7372 5.697C78.6112 6.647 79.0482 7.83767 79.0482 9.269C79.0482 10.7003 78.6112 11.891 77.7372 12.841C76.8759 13.7783 75.7485 14.247 74.3552 14.247C72.9492 14.247 71.8155 13.7783 70.9542 12.841C70.0929 11.9037 69.6622 10.713 69.6622 9.269C69.6622 7.825 70.0929 6.63433 70.9542 5.697C71.8155 4.747 72.9492 4.272 74.3552 4.272ZM75.9702 7.274C75.5649 6.76733 75.0265 6.514 74.3552 6.514C73.6839 6.514 73.1455 6.76733 72.7402 7.274C72.3349 7.78067 72.1322 8.44567 72.1322 9.269C72.1322 10.0797 72.3349 10.7383 72.7402 11.245C73.1455 11.7517 73.6839 12.005 74.3552 12.005C75.0265 12.005 75.5649 11.7517 75.9702 11.245C76.3755 10.7383 76.5782 10.0797 76.5782 9.269C76.5782 8.44567 76.3755 7.78067 75.9702 7.274ZM84.3433 4.272C85.5213 4.272 86.4079 4.69633 87.0033 5.545V0.699999H89.5113V14H87.0033V12.974C86.4079 13.8227 85.5213 14.247 84.3433 14.247C83.2033 14.247 82.2596 13.8037 81.5123 12.917C80.7649 12.0177 80.3913 10.8017 80.3913 9.269C80.3913 7.73633 80.7649 6.52033 81.5123 5.621C82.2596 4.72167 83.2033 4.272 84.3433 4.272ZM85.0463 12.024C85.4896 12.024 85.8886 11.9163 86.2433 11.701C86.5979 11.473 86.8576 11.1943 87.0223 10.865V7.654C86.8576 7.32467 86.5979 7.05233 86.2433 6.837C85.8886 6.609 85.4896 6.495 85.0463 6.495C84.4003 6.495 83.8746 6.74833 83.4693 7.255C83.0766 7.76167 82.8803 8.433 82.8803 9.269C82.8803 10.0923 83.0829 10.7573 83.4883 11.264C83.8936 11.7707 84.4129 12.024 85.0463 12.024ZM99.8713 9.288V9.915H93.9053C94.0446 10.6243 94.3676 11.1627 94.8743 11.53C95.381 11.8973 96.0206 12.081 96.7933 12.081C97.6926 12.081 98.5476 11.8467 99.3583 11.378V13.43C98.611 13.9747 97.5533 14.247 96.1853 14.247C94.8173 14.247 93.6836 13.7973 92.7843 12.898C91.8976 11.9987 91.4543 10.789 91.4543 9.269C91.4543 7.81233 91.8533 6.61533 92.6513 5.678C93.4493 4.74067 94.5133 4.272 95.8433 4.272C97.11 4.272 98.098 4.75333 98.8073 5.716C99.5166 6.666 99.8713 7.85667 99.8713 9.288ZM93.8673 8.3H97.4583C97.4583 7.74267 97.3126 7.26133 97.0213 6.856C96.73 6.45067 96.2993 6.248 95.7293 6.248C95.21 6.248 94.7793 6.44433 94.4373 6.837C94.108 7.217 93.918 7.70467 93.8673 8.3Z" fill="white"/>
<path d="M4.247 14L3.31067 13.6489L2.804 15H4.247V14ZM9.263 0.623999V-0.376001H8.57L8.32667 0.272876L9.263 0.623999ZM11.714 0.623999L12.6503 0.272876L12.407 -0.376001H11.714V0.623999ZM16.73 14V15H18.173L17.6663 13.6489L16.73 14ZM13.994 14L13.0519 14.3352L13.2884 15H13.994V14ZM12.892 10.903L13.8341 10.5678L13.5976 9.903H12.892V10.903ZM8.009 10.903V9.903H7.29931L7.06505 10.5729L8.009 10.903ZM6.926 14V15H7.63569L7.86995 14.3301L6.926 14ZM8.769 8.737L7.82485 8.40747L7.36082 9.737H8.769V8.737ZM12.151 8.737V9.737H13.5592L13.0951 8.40747L12.151 8.737ZM10.46 3.892L11.4041 3.56247L10.46 0.857335L9.51585 3.56248L10.46 3.892ZM5.18333 14.3511L10.1993 0.975122L8.32667 0.272876L3.31067 13.6489L5.18333 14.3511ZM9.263 1.624H11.714V-0.376001H9.263V1.624ZM10.7777 0.975122L15.7937 14.3511L17.6663 13.6489L12.6503 0.272876L10.7777 0.975122ZM16.73 13H13.994V15H16.73V13ZM14.9361 13.6648L13.8341 10.5678L11.9499 11.2382L13.0519 14.3352L14.9361 13.6648ZM12.892 9.903H8.009V11.903H12.892V9.903ZM7.06505 10.5729L5.98205 13.6699L7.86995 14.3301L8.95295 11.2331L7.06505 10.5729ZM6.926 13H4.247V15H6.926V13ZM8.769 9.737H12.151V7.737H8.769V9.737ZM13.0951 8.40747L11.4041 3.56247L9.51585 4.22153L11.2069 9.06653L13.0951 8.40747ZM9.51585 3.56248L7.82485 8.40747L9.71315 9.06652L11.4041 4.22153L9.51585 3.56248ZM26.6597 14V15H27.6597V14H26.6597ZM24.1517 14H23.1517V15H24.1517V14ZM23.6957 7.008L23.0395 7.76261L23.0569 7.77773L23.075 7.79205L23.6957 7.008ZM20.8077 7.635L19.9733 7.08394L19.8077 7.33461V7.635H20.8077ZM20.8077 14V15H21.8077V14H20.8077ZM18.2997 14H17.2997V15H18.2997V14ZM18.2997 4.519V3.519H17.2997V4.519H18.2997ZM20.8077 4.519H21.8077V3.519H20.8077V4.519ZM20.8077 5.583H19.8077V8.40202L21.5842 6.21317L20.8077 5.583ZM25.8807 5.165L25.1191 5.81317L25.1272 5.82237L25.8807 5.165ZM25.6597 7.673V14H27.6597V7.673H25.6597ZM26.6597 13H24.1517V15H26.6597V13ZM25.1517 14V8.281H23.1517V14H25.1517ZM25.1517 8.281C25.1517 7.54242 24.97 6.74133 24.3164 6.22395L23.075 7.79205C23.058 7.77854 23.0729 7.77869 23.0963 7.84398C23.1226 7.91751 23.1517 8.05444 23.1517 8.281H25.1517ZM24.3519 6.25339C23.863 5.82822 23.2693 5.628 22.6317 5.628V7.628C22.8301 7.628 22.9458 7.68111 23.0395 7.76261L24.3519 6.25339ZM22.6317 5.628C21.5069 5.628 20.5925 6.14617 19.9733 7.08394L21.6422 8.18606C21.9096 7.78116 22.2112 7.628 22.6317 7.628V5.628ZM19.8077 7.635V14H21.8077V7.635H19.8077ZM20.8077 13H18.2997V15H20.8077V13ZM19.2997 14V4.519H17.2997V14H19.2997ZM18.2997 5.519H20.8077V3.519H18.2997V5.519ZM19.8077 4.519V5.583H21.8077V4.519H19.8077ZM21.5842 6.21317C22.0914 5.58825 22.7484 5.272 23.6577 5.272V3.272C22.1858 3.272 20.9428 3.82975 20.0313 4.95283L21.5842 6.21317ZM23.6577 5.272C24.4187 5.272 24.8483 5.49477 25.1192 5.81312L26.6423 4.51688C25.8999 3.64456 24.8474 3.272 23.6577 3.272V5.272ZM25.1272 5.82237C25.4379 6.17862 25.6597 6.74992 25.6597 7.673H27.6597C27.6597 6.44274 27.3622 5.34204 26.6343 4.50763L25.1272 5.82237ZM30.5126 13.506L29.8142 14.2218L29.8231 14.2304L29.8321 14.2388L30.5126 13.506ZM29.7336 6.647H30.7336V5.647H29.7336V6.647ZM28.1376 6.647H27.1376V7.647H28.1376V6.647ZM28.1376 4.519V3.519H27.1376V4.519H28.1376ZM29.7336 4.519V5.519H30.7336V4.519H29.7336ZM29.7336 1.916V0.915999H28.7336V1.916H29.7336ZM32.2416 1.916H33.2416V0.915999H32.2416V1.916ZM32.2416 4.519H31.2416V5.519H32.2416V4.519ZM34.5786 4.519H35.5786V3.519H34.5786V4.519ZM34.5786 6.647V7.647H35.5786V6.647H34.5786ZM32.2416 6.647V5.647H31.2416V6.647H32.2416ZM32.5076 11.644L31.7356 12.2797L31.7451 12.2913L31.755 12.3025L32.5076 11.644ZM34.5406 11.663H35.5406V10.0898L34.1161 10.7575L34.5406 11.663ZM34.5406 13.81L35.0298 14.6821L35.5406 14.3956V13.81H34.5406ZM32.5456 13.247C31.9382 13.247 31.515 13.0722 31.193 12.7732L29.8321 14.2388C30.5742 14.9278 31.5063 15.247 32.5456 15.247V13.247ZM31.2109 12.7902C30.9389 12.5249 30.7336 12.0885 30.7336 11.321H28.7336C28.7336 12.4535 29.0475 13.4738 29.8142 14.2218L31.2109 12.7902ZM30.7336 11.321V6.647H28.7336V11.321H30.7336ZM29.7336 5.647H28.1376V7.647H29.7336V5.647ZM29.1376 6.647V4.519H27.1376V6.647H29.1376ZM28.1376 5.519H29.7336V3.519H28.1376V5.519ZM30.7336 4.519V1.916H28.7336V4.519H30.7336ZM29.7336 2.916H32.2416V0.915999H29.7336V2.916ZM31.2416 1.916V4.519H33.2416V1.916H31.2416ZM32.2416 5.519H34.5786V3.519H32.2416V5.519ZM33.5786 4.519V6.647H35.5786V4.519H33.5786ZM34.5786 5.647H32.2416V7.647H34.5786V5.647ZM31.2416 6.647V10.599H33.2416V6.647H31.2416ZM31.2416 10.599C31.2416 11.1597 31.3366 11.7952 31.7356 12.2797L33.2795 11.0083C33.3073 11.042 33.2953 11.0458 33.2772 10.9746C33.2589 10.903 33.2416 10.7826 33.2416 10.599H31.2416ZM31.755 12.3025C32.2012 12.8125 32.8347 12.948 33.3816 12.948V10.948C33.2576 10.948 33.2003 10.9319 33.1876 10.9275C33.1828 10.9258 33.1907 10.9281 33.2061 10.938C33.2221 10.9484 33.2414 10.9641 33.2601 10.9855L31.755 12.3025ZM33.3816 12.948C33.9241 12.948 34.4553 12.8074 34.965 12.5685L34.1161 10.7575C33.8151 10.8986 33.5737 10.948 33.3816 10.948V12.948ZM33.5406 11.663V13.81H35.5406V11.663H33.5406ZM34.0513 12.9379C33.7258 13.1205 33.2442 13.247 32.5456 13.247V15.247C33.4683 15.247 34.3167 15.0822 35.0298 14.6821L34.0513 12.9379ZM36.1666 17.61H35.1666V18.2694L35.7726 18.5291L36.1666 17.61ZM36.1666 15.349L36.6627 14.4808L35.1666 13.6258V15.349H36.1666ZM38.5226 15.178L37.7854 14.5023L37.7708 14.5182L37.7569 14.5348L38.5226 15.178ZM39.2826 13.658L40.2346 13.964L40.3438 13.6243L40.2133 13.2923L39.2826 13.658ZM35.6916 4.519V3.519H34.2242L34.7608 4.88471L35.6916 4.519ZM38.3896 4.519L39.3396 4.20703L39.1137 3.519H38.3896V4.519ZM40.4796 10.884L39.5295 11.196L40.4972 14.1431L41.433 11.1857L40.4796 10.884ZM42.4936 4.519V3.519H41.7611L41.5401 4.21732L42.4936 4.519ZM45.1156 4.519L46.055 4.8617L46.5448 3.519H45.1156V4.519ZM41.2966 14.988L40.3571 14.6453L40.3555 14.6497L41.2966 14.988ZM37.8956 16.895C37.2634 16.895 36.8351 16.8086 36.5605 16.6909L35.7726 18.5291C36.3847 18.7914 37.109 18.895 37.8956 18.895V16.895ZM37.1666 17.61V15.349H35.1666V17.61H37.1666ZM35.6704 16.2172C36.2011 16.5205 36.7964 16.653 37.4206 16.653V14.653C37.082 14.653 36.8413 14.5828 36.6627 14.4808L35.6704 16.2172ZM37.4206 16.653C38.1405 16.653 38.8056 16.3958 39.2883 15.8212L37.7569 14.5348C37.7075 14.5935 37.6379 14.653 37.4206 14.653V16.653ZM39.2597 15.8537C39.6854 15.3893 39.9924 14.7173 40.2346 13.964L38.3305 13.352C38.1167 14.0173 37.917 14.3587 37.7854 14.5023L39.2597 15.8537ZM40.2133 13.2923L36.6223 4.15329L34.7608 4.88471L38.3518 14.0237L40.2133 13.2923ZM35.6916 5.519H38.3896V3.519H35.6916V5.519ZM37.4395 4.83097L39.5295 11.196L41.4296 10.572L39.3396 4.20703L37.4395 4.83097ZM41.433 11.1857L43.447 4.82068L41.5401 4.21732L39.5261 10.5823L41.433 11.1857ZM42.4936 5.519H45.1156V3.519H42.4936V5.519ZM44.1761 4.1763L40.3571 14.6453L42.236 15.3307L46.055 4.8617L44.1761 4.1763ZM40.3555 14.6497C40.0446 15.5146 39.6679 16.0715 39.2741 16.4081C38.8985 16.7291 38.4564 16.895 37.8956 16.895V18.895C38.9054 18.895 39.8154 18.5764 40.5735 17.9284C41.3134 17.296 41.8518 16.3994 42.2376 15.3263L40.3555 14.6497ZM48.4704 9.896H47.4704V10.896H48.4704V9.896ZM48.4704 7.54V6.54H47.4704V7.54H48.4704ZM53.7144 7.54H54.7144V6.54H53.7144V7.54ZM53.7144 9.896V10.896H54.7144V9.896H53.7144ZM49.4704 9.896V7.54H47.4704V9.896H49.4704ZM48.4704 8.54H53.7144V6.54H48.4704V8.54ZM52.7144 7.54V9.896H54.7144V7.54H52.7144ZM53.7144 8.896H48.4704V10.896H53.7144V8.896ZM60.1692 12.366L59.4371 13.0473L59.4442 13.0547L60.1692 12.366ZM60.1692 2.372L60.9012 3.05329L60.9045 3.04968L60.1692 2.372ZM67.8642 1.175H68.8642V0.617944L68.3905 0.324735L67.8642 1.175ZM67.8642 3.778L67.2986 4.60273L68.8642 5.67623V3.778H67.8642ZM62.0882 4.12L61.337 3.45986L61.3314 3.46638L62.0882 4.12ZM62.1262 10.58L61.3806 11.2465L61.3862 11.2527L62.1262 10.58ZM68.0922 10.751H69.0922V8.64712L67.4608 9.97556L68.0922 10.751ZM68.0922 13.354L68.6469 14.1861L69.0922 13.8892V13.354H68.0922ZM64.7862 13.266C63.1633 13.266 61.8939 12.7296 60.8942 11.6772L59.4442 13.0547C60.8511 14.5358 62.6597 15.266 64.7862 15.266V13.266ZM60.9012 11.6847C59.9133 10.6233 59.3832 9.21064 59.3832 7.35H57.3832C57.3832 9.61869 58.0437 11.55 59.4372 13.0473L60.9012 11.6847ZM59.3832 7.35C59.3832 5.51842 59.9112 4.11703 60.9012 3.05328L59.4372 1.69071C58.0458 3.18564 57.3832 5.10291 57.3832 7.35H59.3832ZM60.9045 3.04968C61.8921 1.97808 63.1509 1.434 64.7672 1.434V-0.566001C62.6341 -0.566001 60.8276 0.181914 59.4338 1.69432L60.9045 3.04968ZM64.7672 1.434C65.9109 1.434 66.7441 1.65771 67.3378 2.02526L68.3905 0.324735C67.3883 -0.295711 66.1568 -0.566001 64.7672 -0.566001V1.434ZM66.8642 1.175V3.778H68.8642V1.175H66.8642ZM68.4297 2.95327C67.3763 2.23092 66.1974 1.866 64.9192 1.866V3.866C65.7943 3.866 66.5787 4.10908 67.2986 4.60273L68.4297 2.95327ZM64.9192 1.866C63.4906 1.866 62.2691 2.39919 61.337 3.45988L62.8393 4.78011C63.3766 4.16881 64.0424 3.866 64.9192 3.866V1.866ZM61.3314 3.46638C60.4235 4.51763 60.0052 5.84117 60.0052 7.35H62.0052C62.0052 6.22416 62.3089 5.39437 62.845 4.77362L61.3314 3.46638ZM60.0052 7.35C60.0052 8.86768 60.4414 10.1958 61.3806 11.2465L62.8717 9.91354C62.3163 9.29218 62.0052 8.46698 62.0052 7.35H60.0052ZM61.3862 11.2527C62.3447 12.307 63.587 12.834 65.0332 12.834V10.834C64.1233 10.834 63.4276 10.525 62.8661 9.90733L61.3862 11.2527ZM65.0332 12.834C66.4139 12.834 67.657 12.395 68.7236 11.5264L67.4608 9.97556C66.754 10.551 65.9578 10.834 65.0332 10.834V12.834ZM67.0922 10.751V13.354H69.0922V10.751H67.0922ZM67.5375 12.5219C66.8173 13.002 65.9168 13.266 64.7862 13.266V15.266C66.2396 15.266 67.543 14.922 68.6469 14.1861L67.5375 12.5219ZM77.7372 5.697L76.9964 6.36871L77.0013 6.37406L77.7372 5.697ZM77.7372 12.841L77.0013 12.1639L77.0009 12.1644L77.7372 12.841ZM70.9542 12.841L71.6905 12.1644L70.9542 12.841ZM70.9542 5.697L71.6906 6.37364L71.695 6.36869L70.9542 5.697ZM75.9702 7.274L75.1893 7.89869L75.9702 7.274ZM72.7402 7.274L73.5211 7.89869L72.7402 7.274ZM72.7402 11.245L71.9593 11.8697L72.7402 11.245ZM75.9702 11.245L75.1893 10.6203V10.6203L75.9702 11.245ZM74.3552 5.272C75.4937 5.272 76.3422 5.6472 76.9964 6.36869L78.478 5.02531C77.4095 3.84679 76.0034 3.272 74.3552 3.272V5.272ZM77.0013 6.37406C77.6865 7.11883 78.0482 8.05895 78.0482 9.269H80.0482C80.0482 7.61639 79.5359 6.17517 78.4731 5.01994L77.0013 6.37406ZM78.0482 9.269C78.0482 10.4791 77.6865 11.4192 77.0013 12.1639L78.4731 13.5181C79.5359 12.3628 80.0482 10.9216 80.0482 9.269H78.0482ZM77.0009 12.1644C76.348 12.8749 75.4982 13.247 74.3552 13.247V15.247C75.9989 15.247 77.4037 14.6818 78.4735 13.5176L77.0009 12.1644ZM74.3552 13.247C73.1965 13.247 72.3415 12.8728 71.6905 12.1644L70.2179 13.5176C71.2895 14.6838 72.7019 15.247 74.3552 15.247V13.247ZM71.6905 12.1644C71.0218 11.4366 70.6622 10.4986 70.6622 9.269H68.6622C68.6622 10.9274 69.164 12.3707 70.2179 13.5176L71.6905 12.1644ZM70.6622 9.269C70.6622 8.03942 71.0218 7.1014 71.6905 6.37362L70.2179 5.02037C69.164 6.16726 68.6622 7.61058 68.6622 9.269H70.6622ZM71.695 6.36869C72.3473 5.64927 73.201 5.272 74.3552 5.272V3.272C72.6974 3.272 71.2838 3.84473 70.2134 5.02531L71.695 6.36869ZM76.7511 6.64931C76.1485 5.89605 75.3181 5.514 74.3552 5.514V7.514C74.735 7.514 74.9813 7.63862 75.1893 7.89869L76.7511 6.64931ZM74.3552 5.514C73.3923 5.514 72.5619 5.89605 71.9593 6.64931L73.5211 7.89869C73.7291 7.63862 73.9754 7.514 74.3552 7.514V5.514ZM71.9593 6.64931C71.3777 7.3764 71.1322 8.28077 71.1322 9.269H73.1322C73.1322 8.61057 73.2921 8.18493 73.5211 7.89869L71.9593 6.64931ZM71.1322 9.269C71.1322 10.2488 71.3798 11.1452 71.9593 11.8697L73.5211 10.6203C73.29 10.3315 73.1322 9.91055 73.1322 9.269H71.1322ZM71.9593 11.8697C72.5619 12.623 73.3923 13.005 74.3552 13.005V11.005C73.9754 11.005 73.7291 10.8804 73.5211 10.6203L71.9593 11.8697ZM74.3552 13.005C75.3181 13.005 76.1485 12.623 76.7511 11.8697L75.1893 10.6203C74.9813 10.8804 74.735 11.005 74.3552 11.005V13.005ZM76.7511 11.8697C77.3307 11.1452 77.5782 10.2488 77.5782 9.269H75.5782C75.5782 9.91055 75.4204 10.3315 75.1893 10.6203L76.7511 11.8697ZM77.5782 9.269C77.5782 8.28077 77.3327 7.3764 76.7511 6.64931L75.1893 7.89869C75.4183 8.18493 75.5782 8.61057 75.5782 9.269H77.5782ZM87.0033 5.545L86.1846 6.11928L88.0033 8.71184V5.545H87.0033ZM87.0033 0.699999V-0.300001H86.0033V0.699999H87.0033ZM89.5113 0.699999H90.5113V-0.300001H89.5113V0.699999ZM89.5113 14V15H90.5113V14H89.5113ZM87.0033 14H86.0033V15H87.0033V14ZM87.0033 12.974H88.0033V9.80716L86.1846 12.3997L87.0033 12.974ZM81.5123 12.917L80.7431 13.5561L80.7476 13.5615L81.5123 12.917ZM81.5123 5.621L82.2814 6.26012L81.5123 5.621ZM86.2433 11.701L86.7622 12.5558L86.7732 12.5491L86.784 12.5422L86.2433 11.701ZM87.0223 10.865L87.9167 11.3122L88.0223 11.1011V10.865H87.0223ZM87.0223 7.654H88.0223V7.41793L87.9167 7.20679L87.0223 7.654ZM86.2433 6.837L85.7025 7.67818L85.7133 7.68512L85.7243 7.69179L86.2433 6.837ZM83.4693 7.255L82.6884 6.6303L82.6836 6.63633L82.6789 6.64243L83.4693 7.255ZM84.3433 5.272C85.2467 5.272 85.8042 5.57697 86.1846 6.11928L87.8219 4.97072C87.0117 3.81569 85.7958 3.272 84.3433 3.272V5.272ZM88.0033 5.545V0.699999H86.0033V5.545H88.0033ZM87.0033 1.7H89.5113V-0.300001H87.0033V1.7ZM88.5113 0.699999V14H90.5113V0.699999H88.5113ZM89.5113 13H87.0033V15H89.5113V13ZM88.0033 14V12.974H86.0033V14H88.0033ZM86.1846 12.3997C85.8042 12.942 85.2467 13.247 84.3433 13.247V15.247C85.7958 15.247 87.0117 14.7033 87.8219 13.5483L86.1846 12.3997ZM84.3433 13.247C83.5039 13.247 82.838 12.9382 82.2769 12.2725L80.7476 13.5615C81.6812 14.6691 82.9026 15.247 84.3433 15.247V13.247ZM82.2814 12.2779C81.7243 11.6075 81.3913 10.6416 81.3913 9.269H79.3913C79.3913 10.9617 79.8056 12.4279 80.7432 13.5561L82.2814 12.2779ZM81.3913 9.269C81.3913 7.89638 81.7243 6.93054 82.2814 6.26012L80.7432 4.98188C79.8056 6.11012 79.3913 7.57629 79.3913 9.269H81.3913ZM82.2814 6.26012C82.8444 5.58262 83.5093 5.272 84.3433 5.272V3.272C82.8973 3.272 81.6748 3.86071 80.7432 4.98188L82.2814 6.26012ZM85.0463 13.024C85.6596 13.024 86.2404 12.8727 86.7622 12.5558L85.7243 10.8462C85.5368 10.96 85.3196 11.024 85.0463 11.024V13.024ZM86.784 12.5422C87.2675 12.2314 87.6606 11.8244 87.9167 11.3122L86.1278 10.4178C86.0546 10.5642 85.9284 10.7146 85.7025 10.8598L86.784 12.5422ZM88.0223 10.865V7.654H86.0223V10.865H88.0223ZM87.9167 7.20679C87.6574 6.68823 87.257 6.28257 86.7622 5.98221L85.7243 7.69179C85.9389 7.8221 86.0578 7.9611 86.1278 8.10121L87.9167 7.20679ZM86.784 5.99582C86.2596 5.65866 85.671 5.495 85.0463 5.495V7.495C85.3082 7.495 85.5176 7.55934 85.7025 7.67818L86.784 5.99582ZM85.0463 5.495C84.0949 5.495 83.2825 5.88765 82.6884 6.6303L84.2501 7.87969C84.4667 7.60902 84.7056 7.495 85.0463 7.495V5.495ZM82.6789 6.64243C82.114 7.37134 81.8803 8.279 81.8803 9.269H83.8803C83.8803 8.587 84.0393 8.15199 84.2597 7.86757L82.6789 6.64243ZM81.8803 9.269C81.8803 10.2572 82.1257 11.1616 82.7074 11.8887L84.2691 10.6393C84.0401 10.3531 83.8803 9.92743 83.8803 9.269H81.8803ZM82.7074 11.8887C83.2971 12.6258 84.1006 13.024 85.0463 13.024V11.024C84.7253 11.024 84.4901 10.9155 84.2691 10.6393L82.7074 11.8887ZM99.8713 9.915V10.915H100.871V9.915H99.8713ZM93.9053 9.915V8.915H92.6898L92.9241 10.1077L93.9053 9.915ZM94.8743 11.53L95.4613 10.7204V10.7204L94.8743 11.53ZM99.3583 11.378H100.358V9.64479L98.8578 10.5123L99.3583 11.378ZM99.3583 13.43L99.9473 14.2381L100.358 13.9386V13.43H99.3583ZM92.7843 12.898L92.0722 13.6001L92.0772 13.6051L92.7843 12.898ZM92.6513 5.678L93.4127 6.32624L92.6513 5.678ZM98.8073 5.716L98.0022 6.30921L98.006 6.31429L98.8073 5.716ZM93.8673 8.3L92.8709 8.2152L92.7786 9.3H93.8673V8.3ZM97.4583 8.3V9.3H98.4583V8.3H97.4583ZM97.0213 6.856L96.2093 7.43963V7.43964L97.0213 6.856ZM94.4373 6.837L93.6832 6.18022L93.6816 6.18207L94.4373 6.837ZM98.8713 9.288V9.915H100.871V9.288H98.8713ZM99.8713 8.915H93.9053V10.915H99.8713V8.915ZM92.9241 10.1077C93.104 11.0239 93.5443 11.8009 94.2873 12.3396L95.4613 10.7204C95.1909 10.5244 94.9853 10.2247 94.8866 9.72225L92.9241 10.1077ZM94.2873 12.3396C95.0013 12.8572 95.86 13.081 96.7933 13.081V11.081C96.1813 11.081 95.7607 10.9374 95.4613 10.7204L94.2873 12.3396ZM96.7933 13.081C97.8758 13.081 98.9025 12.7966 99.8588 12.2437L98.8578 10.5123C98.1927 10.8968 97.5095 11.081 96.7933 11.081V13.081ZM98.3583 11.378V13.43H100.358V11.378H98.3583ZM98.7693 12.6219C98.2574 12.9949 97.4383 13.247 96.1853 13.247V15.247C97.6684 15.247 98.9645 14.9544 99.9473 14.2381L98.7693 12.6219ZM96.1853 13.247C95.0604 13.247 94.1881 12.8876 93.4914 12.1909L92.0772 13.6051C93.1792 14.7071 94.5743 15.247 96.1853 15.247V13.247ZM93.4964 12.1959C92.8308 11.5208 92.4543 10.5833 92.4543 9.269H90.4543C90.4543 10.9947 90.9645 12.4766 92.0722 13.6001L93.4964 12.1959ZM92.4543 9.269C92.4543 8.00417 92.796 7.05069 93.4127 6.32624L91.8899 5.02975C90.9106 6.17998 90.4543 7.62049 90.4543 9.269H92.4543ZM93.4127 6.32624C94.0041 5.63166 94.7797 5.272 95.8433 5.272V3.272C94.2469 3.272 92.8945 3.84967 91.8899 5.02975L93.4127 6.32624ZM95.8433 5.272C96.8143 5.272 97.4941 5.61957 98.0023 6.3092L99.6124 5.1228C98.7018 3.88709 97.4057 3.272 95.8433 3.272V5.272ZM98.006 6.31429C98.5614 7.05805 98.8713 8.02645 98.8713 9.288H100.871C100.871 7.68688 100.472 6.27394 99.6086 5.11771L98.006 6.31429ZM93.8673 9.3H97.4583V7.3H93.8673V9.3ZM98.4583 8.3C98.4583 7.55875 98.261 6.86737 97.8333 6.27236L96.2093 7.43964C96.3643 7.6553 96.4583 7.92658 96.4583 8.3H98.4583ZM97.8333 6.27236C97.3254 5.56569 96.5687 5.248 95.7293 5.248V7.248C96.03 7.248 96.1345 7.33564 96.2093 7.43963L97.8333 6.27236ZM95.7293 5.248C94.9199 5.248 94.2146 5.57017 93.6832 6.18022L95.1914 7.49378C95.3441 7.31849 95.5 7.248 95.7293 7.248V5.248ZM93.6816 6.18207C93.1892 6.75025 92.936 7.44991 92.8709 8.2152L94.8637 8.3848C94.8999 7.95942 95.0268 7.68375 95.193 7.49193L93.6816 6.18207Z" fill="black"/>
</g>
<defs>
<filter id="filter0_d_1_576" x="0.246948" y="0.43396" width="103.624" height="25.4611" filterUnits="userSpaceOnUse" color-interpolation-filters="sRGB">
<feFlood flood-opacity="0" result="BackgroundImageFix"/>
<feColorMatrix in="SourceAlpha" type="matrix" values="0 0 0 0 0 0 0 0 0 0 0 0 0 0 0 0 0 0 127 0" result="hardAlpha"/>
<feOffset dy="4"/>
<feGaussianBlur stdDeviation="2"/>
<feComposite in2="hardAlpha" operator="out"/>
<feColorMatrix type="matrix" values="0 0 0 0 0 0 0 0 0 0 0 0 0 0 0 0 0 0 0.25 0"/>
<feBlend mode="normal" in2="BackgroundImageFix" result="effect1_dropShadow_1_576"/>
<feBlend mode="normal" in="SourceGraphic" in2="effect1_dropShadow_1_576" result="shape"/>
</filter>
</defs>
</svg>
