<svg width="20" height="20" viewBox="0 0 20 20" fill="none" xmlns="http://www.w3.org/2000/svg">
<path d="M9.99996 1.66669C5.40496 1.66669 1.66663 5.40502 1.66663 10V13.4525C1.66663 14.3059 2.41413 15 3.33329 15H4.16663C4.38764 15 4.5996 14.9122 4.75588 14.7559C4.91216 14.5997 4.99996 14.3877 4.99996 14.1667V9.88085C4.99996 9.65984 4.91216 9.44788 4.75588 9.2916C4.5996 9.13532 4.38764 9.04752 4.16663 9.04752H3.40996C3.87329 5.82252 6.64829 3.33335 9.99996 3.33335C13.3516 3.33335 16.1266 5.82252 16.59 9.04752H15.8333C15.6123 9.04752 15.4003 9.13532 15.244 9.2916C15.0878 9.44788 15 9.65984 15 9.88085V15C15 15.9192 14.2525 16.6667 13.3333 16.6667H11.6666V15.8334H8.33329V18.3334H13.3333C15.1716 18.3334 16.6666 16.8384 16.6666 15C17.5858 15 18.3333 14.3059 18.3333 13.4525V10C18.3333 5.40502 14.595 1.66669 9.99996 1.66669Z" fill="#79797A" fill-opacity="0.3"/>
<path d="M3.11301 9.00486L3.06378 9.34752H3.40996H4.16663C4.30807 9.34752 4.44373 9.40371 4.54375 9.50373C4.64377 9.60375 4.69996 9.7394 4.69996 9.88085V14.1667C4.69996 14.3081 4.64377 14.4438 4.54375 14.5438C4.44373 14.6438 4.30807 14.7 4.16663 14.7H3.33329C2.55848 14.7 1.96663 14.1196 1.96663 13.4525V10C1.96663 5.57071 5.57064 1.96669 9.99996 1.96669C14.4293 1.96669 18.0333 5.57071 18.0333 10V13.4525C18.0333 14.1196 17.4414 14.7 16.6666 14.7H16.3666V15C16.3666 16.6727 15.0059 18.0334 13.3333 18.0334H8.63329V16.1334H11.3666V16.6667V16.9667H11.6666H13.3333C14.4181 16.9667 15.3 16.0849 15.3 15V9.88085C15.3 9.7394 15.3561 9.60375 15.4562 9.50373C15.5562 9.40371 15.6918 9.34752 15.8333 9.34752H16.59H16.9361L16.8869 9.00486C16.4028 5.63497 13.5036 3.03335 9.99996 3.03335C6.49628 3.03335 3.59716 5.63497 3.11301 9.00486Z" stroke="white" stroke-opacity="0.2" stroke-width="0.6"/>
</svg>
