<svg width="22" height="22" viewBox="0 0 22 22" fill="none" xmlns="http://www.w3.org/2000/svg">
<path d="M18.4427 9.69835C17.5627 8.96502 16.481 8.59834 15.4085 8.69001C15.161 5.40834 12.5302 3.72168 10.0002 3.72168H9.88099C7.38766 3.76751 4.66516 5.46335 4.59182 9.03835C2.59349 9.95502 1.47516 12.2467 1.94266 14.5017C2.21766 15.8767 3.09765 17.0867 4.28932 17.7467C5.06849 18.1775 5.82933 18.2875 6.37933 18.2875C6.48933 18.2875 6.59933 18.2783 6.70016 18.2692L16.0227 18.2325C18.3968 18.2233 20.166 15.7025 20.1752 13.4567C20.1752 11.2017 18.6168 9.84502 18.4427 9.69835Z" fill="#79797A" fill-opacity="0.2"/>
<path d="M14.9099 8.72761L14.9479 9.2312L15.4511 9.1882C16.3795 9.10884 17.3329 9.42481 18.1215 10.0816C18.2753 10.2113 19.6747 11.4381 19.6752 13.4556C19.6708 14.4563 19.2708 15.5387 18.5975 16.3683C17.9259 17.1959 17.0209 17.7287 16.0207 17.7325H16.0207L6.69819 17.7692L6.6765 17.7693L6.65489 17.7712C6.55437 17.7804 6.46442 17.7875 6.37933 17.7875C5.89357 17.7875 5.22036 17.6901 4.53127 17.3091C3.47106 16.7218 2.67974 15.6376 2.43295 14.4036L2.43296 14.4036L2.43225 14.4002C2.00927 12.36 3.02598 10.3067 4.80029 9.49282L5.08529 9.36208L5.09172 9.0486C5.12558 7.39778 5.76542 6.21426 6.65822 5.43281C7.55979 4.64368 8.74446 4.24365 9.8857 4.22168H10.0002C12.3213 4.22168 14.6858 5.75622 14.9099 8.72761Z" stroke="white" stroke-opacity="0.3"/>
</svg>
