<svg width="22" height="22" viewBox="0 0 22 22" fill="none" xmlns="http://www.w3.org/2000/svg">
<path d="M16.9668 2.75001H5.05011C4.20238 2.75243 3.39006 3.09027 2.79063 3.6897C2.19119 4.28914 1.85337 5.10146 1.85095 5.94918V13.1725C1.85337 14.0202 2.19119 14.8326 2.79063 15.432C3.39006 16.0314 4.20238 16.3693 5.05011 16.3717H8.98262V17.875H7.72678C7.54518 17.8774 7.37169 17.9506 7.24326 18.079C7.11484 18.2074 7.04165 18.3809 7.03928 18.5625C7.04165 18.7441 7.11484 18.9176 7.24326 19.046C7.37169 19.1744 7.54518 19.2476 7.72678 19.25H14.2993C14.4809 19.2476 14.6544 19.1744 14.7828 19.046C14.9112 18.9176 14.9844 18.7441 14.9868 18.5625C14.9844 18.3809 14.9112 18.2074 14.7828 18.079C14.6544 17.9506 14.4809 17.8774 14.2993 17.875H13.0434V16.3717H16.9851C17.8328 16.3693 18.6452 16.0314 19.2446 15.432C19.844 14.8326 20.1819 14.0202 20.1843 13.1725V5.94918C20.1831 5.52786 20.0989 5.11089 19.9366 4.7221C19.7742 4.33331 19.5369 3.9803 19.2381 3.68323C18.9393 3.38616 18.585 3.15084 18.1953 2.99072C17.8055 2.8306 17.3881 2.74881 16.9668 2.75001ZM10.3393 17.875V16.3717H11.6501V17.875H10.3393Z" fill="#79797A" fill-opacity="0.2"/>
<path d="M16.9668 3.25002L16.9682 3.25001C17.3239 3.24899 17.6763 3.31804 18.0052 3.4532C18.3342 3.58837 18.6334 3.78701 18.8856 4.03779C19.1378 4.28856 19.3381 4.58656 19.4752 4.91476C19.6121 5.24277 19.6832 5.59453 19.6843 5.94997C19.6843 5.95018 19.6843 5.9504 19.6843 5.95061V13.1711C19.6843 13.1713 19.6843 13.1715 19.6843 13.1717C19.6821 13.8871 19.3969 14.5726 18.891 15.0784C18.3852 15.5843 17.6997 15.8695 16.9843 15.8717H13.0434H12.5434V16.3717V17.875V18.375H13.0434H14.295C14.3455 18.3763 14.3935 18.3968 14.4292 18.4326C14.464 18.4673 14.4844 18.5136 14.4866 18.5625C14.4844 18.6114 14.464 18.6578 14.4292 18.6925C14.3935 18.7282 14.3454 18.7488 14.295 18.75H7.73107C7.68062 18.7488 7.63254 18.7282 7.59682 18.6925C7.56211 18.6578 7.54169 18.6114 7.53943 18.5625C7.54169 18.5136 7.56211 18.4673 7.59682 18.4326C7.63253 18.3968 7.6806 18.3763 7.73103 18.375H8.98262H9.48262V17.875V16.3717V15.8717H8.98262H5.05089C4.33551 15.8695 3.65005 15.5843 3.14418 15.0784C2.63833 14.5726 2.35317 13.8871 2.35095 13.1718V5.94993C2.35317 5.23456 2.63833 4.54911 3.14418 4.04326C3.65004 3.5374 4.33549 3.25223 5.05086 3.25001L16.9668 3.25002ZM9.83928 17.875V18.375H10.3393H11.6501H12.1501V17.875V16.3717V15.8717H11.6501H10.3393H9.83928V16.3717V17.875Z" stroke="white" stroke-opacity="0.3"/>
</svg>
