<svg width="42" height="25" viewBox="0 0 42 25" fill="none" xmlns="http://www.w3.org/2000/svg">
<g filter="url(#filter0_d_1_567)">
<path d="M34.6271 7.26233L37.1849 9.89608L30.364 16.9242H25.2474L32.0692 9.89698L34.6271 7.26233Z" fill="#9528AC"/>
<path d="M30.364 2.87158L34.6271 7.26237L32.0692 9.89702L32.0683 9.89612L27.807 5.50623L30.364 2.87158Z" fill="url(#paint0_linear_1_567)"/>
<path d="M27.807 5.50623L16.7222 16.9242H11.6056L14.1652 14.2878L25.2474 2.87158H30.364L27.807 5.50623Z" fill="#9528AC"/>
<path d="M14.1652 14.2878L11.6056 16.9242L7.34167 12.5307L9.89865 9.89697L14.1643 14.2869L14.1652 14.2878Z" fill="url(#paint1_linear_1_567)"/>
<path d="M9.89862 9.89702L7.34164 12.5308L4.78467 9.89612L11.6056 2.87158H16.7222L9.89862 9.89702Z" fill="#9528AC"/>
</g>
<defs>
<filter id="filter0_d_1_567" x="0" y="0" width="42" height="27.7419" filterUnits="userSpaceOnUse" color-interpolation-filters="sRGB">
<feFlood flood-opacity="0" result="BackgroundImageFix"/>
<feColorMatrix in="SourceAlpha" type="matrix" values="0 0 0 0 0 0 0 0 0 0 0 0 0 0 0 0 0 0 127 0" result="hardAlpha"/>
<feOffset dy="4"/>
<feGaussianBlur stdDeviation="2"/>
<feComposite in2="hardAlpha" operator="out"/>
<feColorMatrix type="matrix" values="0 0 0 0 0 0 0 0 0 0 0 0 0 0 0 0 0 0 0.25 0"/>
<feBlend mode="normal" in2="BackgroundImageFix" result="effect1_dropShadow_1_567"/>
<feBlend mode="normal" in="SourceGraphic" in2="effect1_dropShadow_1_567" result="shape"/>
</filter>
<linearGradient id="paint0_linear_1_567" x1="33.2487" y1="8.52496" x2="27.6602" y2="3.66031" gradientUnits="userSpaceOnUse">
<stop stop-color="#9528AC"/>
<stop offset="1" stop-color="#62155A" stop-opacity="0.6"/>
</linearGradient>
<linearGradient id="paint1_linear_1_567" x1="8.62059" y1="11.1721" x2="13.9999" y2="16.3111" gradientUnits="userSpaceOnUse">
<stop stop-color="#9528AC"/>
<stop offset="1" stop-color="#62155A" stop-opacity="0.6"/>
</linearGradient>
</defs>
</svg>
