<svg width="22" height="22" viewBox="0 0 22 22" fill="none" xmlns="http://www.w3.org/2000/svg">
<path d="M16.5 13.75H6.41663L5.04163 5.5H19.25L16.5 13.75Z" fill="#79797A" fill-opacity="0.3"/>
<path d="M2.75 2.75H4.58333L5.04167 5.5M5.04167 5.5L6.41667 13.75H16.5L19.25 5.5H5.04167Z" stroke="white" stroke-opacity="0.2" stroke-linecap="round" stroke-linejoin="round"/>
<path d="M7.33329 19.25C7.83955 19.25 8.24996 18.8396 8.24996 18.3334C8.24996 17.8271 7.83955 17.4167 7.33329 17.4167C6.82703 17.4167 6.41663 17.8271 6.41663 18.3334C6.41663 18.8396 6.82703 19.25 7.33329 19.25Z" stroke="white" stroke-opacity="0.2" stroke-width="2" stroke-linecap="round" stroke-linejoin="round"/>
<path d="M15.5833 19.25C16.0896 19.25 16.5 18.8396 16.5 18.3334C16.5 17.8271 16.0896 17.4167 15.5833 17.4167C15.077 17.4167 14.6666 17.8271 14.6666 18.3334C14.6666 18.8396 15.077 19.25 15.5833 19.25Z" stroke="white" stroke-opacity="0.2" stroke-width="2" stroke-linecap="round" stroke-linejoin="round"/>
</svg>
