<svg width="22" height="22" viewBox="0 0 22 22" fill="none" xmlns="http://www.w3.org/2000/svg">
<path d="M9.05214 7.44797L6.76047 5.15631L9.69381 2.22297C9.87714 2.03964 10.0834 1.90214 10.3126 1.81047C10.5417 1.71881 10.7709 1.67297 11.0001 1.67297C11.2292 1.67297 11.4584 1.71881 11.6876 1.81047C11.9167 1.90214 12.123 2.03964 12.3063 2.22297L15.2396 5.15631L12.948 7.44797L11.0001 5.50006L9.05214 7.44797ZM5.15631 15.2396L2.22297 12.3063C2.03964 12.123 1.90214 11.9167 1.81047 11.6876C1.71881 11.4584 1.67297 11.2292 1.67297 11.0001C1.67297 10.7709 1.71881 10.5417 1.81047 10.3126C1.90214 10.0834 2.03964 9.87714 2.22297 9.69381L5.15631 6.76047L7.44797 9.05214L5.50006 11.0001L7.44797 12.948L5.15631 15.2396ZM16.8438 15.2396L14.5521 12.948L16.5001 11.0001L14.5521 9.05214L16.8438 6.76047L19.7771 9.69381C19.9605 9.87714 20.098 10.0834 20.1896 10.3126C20.2813 10.5417 20.3271 10.7709 20.3271 11.0001C20.3271 11.2292 20.2813 11.4584 20.1896 11.6876C20.098 11.9167 19.9605 12.123 19.7771 12.3063L16.8438 15.2396ZM11.0001 20.3271C10.7709 20.3271 10.5417 20.2813 10.3126 20.1896C10.0834 20.098 9.87714 19.9605 9.69381 19.7771L6.76047 16.8438L9.05214 14.5521L11.0001 16.5001L12.948 14.5521L15.2396 16.8438L12.3063 19.7771C12.123 19.9605 11.9167 20.098 11.6876 20.1896C11.4584 20.2813 11.2292 20.3271 11.0001 20.3271ZM12.3063 11.0001C12.3063 11.3514 12.1764 11.657 11.9167 11.9167C11.657 12.1764 11.3514 12.3063 11.0001 12.3063C10.6487 12.3063 10.3431 12.1764 10.0834 11.9167C9.82367 11.657 9.69381 11.3514 9.69381 11.0001C9.69381 10.6487 9.82367 10.3431 10.0834 10.0834C10.3431 9.82367 10.6487 9.69381 11.0001 9.69381C11.3514 9.69381 11.657 9.82367 11.9167 10.0834C12.1764 10.3431 12.3063 10.6487 12.3063 11.0001Z" fill="#79797A" fill-opacity="0.2"/>
<path d="M9.05214 6.74087L7.46758 5.15631L10.0474 2.57653L9.69523 2.22439L10.0474 2.57653C10.1853 2.43861 10.3351 2.33997 10.4983 2.27471C10.6729 2.20483 10.8393 2.17297 11.0001 2.17297C11.1609 2.17297 11.3272 2.20483 11.5019 2.27471C11.665 2.33997 11.8148 2.43861 11.9528 2.57653L14.5325 5.15631L12.948 6.74087L11.3536 5.1465L11.0001 4.79295L10.6465 5.1465L9.05214 6.74087ZM2.57653 10.0474L5.15631 7.46758L6.74087 9.05214L5.1465 10.6465L4.79295 11.0001L5.1465 11.3536L6.74087 12.948L5.15631 14.5325L2.57653 11.9528C2.43861 11.8148 2.33997 11.665 2.27471 11.5019C2.20483 11.3272 2.17297 11.1609 2.17297 11.0001C2.17297 10.8393 2.20483 10.6729 2.27471 10.4983C2.33997 10.3351 2.43861 10.1853 2.57653 10.0474L2.26338 9.73421L2.57653 10.0474ZM16.8438 14.5325L15.2592 12.948L16.8536 11.3536L17.2072 11.0001L16.8536 10.6465L15.2592 9.05214L16.8438 7.46758L19.4236 10.0474C19.5615 10.1853 19.6601 10.3351 19.7254 10.4983C19.7953 10.6729 19.8271 10.8393 19.8271 11.0001C19.8271 11.1609 19.7953 11.3272 19.7254 11.5019C19.6601 11.665 19.5615 11.8148 19.4236 11.9528L16.8438 14.5325ZM11.3536 16.8536L12.948 15.2592L14.5325 16.8438L11.9528 19.4236C11.8148 19.5615 11.665 19.6601 11.5019 19.7254C11.3272 19.7953 11.1609 19.8271 11.0001 19.8271C10.8393 19.8271 10.6729 19.7953 10.4983 19.7254C10.3351 19.6601 10.1853 19.5615 10.0474 19.4236L7.46758 16.8438L9.05214 15.2592L10.6465 16.8536L11.0001 17.2072L11.3536 16.8536ZM11.8063 11.0001C11.8063 11.2123 11.7339 11.3925 11.5632 11.5632C11.3925 11.7339 11.2123 11.8063 11.0001 11.8063C10.7878 11.8063 10.6076 11.7339 10.4369 11.5632C10.2663 11.3925 10.1938 11.2123 10.1938 11.0001C10.1938 10.7878 10.2663 10.6076 10.4369 10.4369C10.6076 10.2663 10.7878 10.1938 11.0001 10.1938C11.2123 10.1938 11.3925 10.2663 11.5632 10.4369C11.7339 10.6076 11.8063 10.7878 11.8063 11.0001Z" stroke="white" stroke-opacity="0.3"/>
</svg>
