<svg width="22" height="22" viewBox="0 0 22 22" fill="none" xmlns="http://www.w3.org/2000/svg">
<path d="M20.1667 9.16667V18.3333C20.1667 18.5764 20.0701 18.8096 19.8982 18.9815C19.7263 19.1534 19.4932 19.25 19.25 19.25H2.75004C2.50693 19.25 2.27377 19.1534 2.10186 18.9815C1.92995 18.8096 1.83337 18.5764 1.83337 18.3333V9.16667H20.1667ZM20.1667 7.33333H1.83337V3.66667C1.83337 3.42355 1.92995 3.19039 2.10186 3.01849C2.27377 2.84658 2.50693 2.75 2.75004 2.75H19.25C19.4932 2.75 19.7263 2.84658 19.8982 3.01849C20.0701 3.19039 20.1667 3.42355 20.1667 3.66667V7.33333ZM13.75 14.6667V16.5H17.4167V14.6667H13.75Z" fill="#79797A" fill-opacity="0.2"/>
<path d="M13.75 14.1667H13.25V14.6667V16.5V17H13.75H17.4167H17.9167V16.5V14.6667V14.1667H17.4167H13.75ZM19.6667 9.66667V18.3333C19.6667 18.4438 19.6228 18.5498 19.5447 18.628C19.4665 18.7061 19.3605 18.75 19.25 18.75H2.75004C2.63953 18.75 2.53355 18.7061 2.45541 18.628C2.37727 18.5498 2.33337 18.4438 2.33337 18.3333V9.66667H19.6667ZM19.6667 6.83333H2.33337V3.66667C2.33337 3.55616 2.37727 3.45018 2.45541 3.37204C2.53355 3.2939 2.63953 3.25 2.75004 3.25H19.25C19.3605 3.25 19.4665 3.2939 19.5447 3.37204C19.6228 3.45018 19.6667 3.55616 19.6667 3.66667V6.83333Z" stroke="white" stroke-opacity="0.3"/>
</svg>
