<svg width="22" height="22" viewBox="0 0 22 22" fill="none" xmlns="http://www.w3.org/2000/svg">
<path d="M6.41522 13.4933H15.5819C15.9484 13.5147 16.3154 13.461 16.6605 13.3355C17.0055 13.21 17.3212 13.0153 17.5883 12.7633C17.8553 12.5114 18.0681 12.2076 18.2135 11.8704C18.359 11.5333 18.434 11.1701 18.434 10.8029C18.434 10.4358 18.359 10.0725 18.2135 9.73538C18.0681 9.39827 17.8553 9.09443 17.5883 8.8425C17.3212 8.59057 17.0055 8.39587 16.6605 8.27033C16.3154 8.1448 15.9484 8.09109 15.5819 8.11249H6.41522C6.0487 8.09109 5.68167 8.1448 5.33665 8.27033C4.99164 8.39587 4.67591 8.59057 4.40884 8.8425C4.14177 9.09443 3.92899 9.39827 3.78356 9.73538C3.63813 10.0725 3.56311 10.4358 3.56311 10.8029C3.56311 11.1701 3.63813 11.5333 3.78356 11.8704C3.92899 12.2076 4.14177 12.5114 4.40884 12.7633C4.67591 13.0153 4.99164 13.21 5.33665 13.3355C5.68167 13.461 6.0487 13.5147 6.41522 13.4933ZM7.10272 9.97333C7.32395 9.97333 7.53613 10.0612 7.69256 10.2176C7.849 10.3741 7.93689 10.5863 7.93689 10.8075C7.93689 11.0287 7.849 11.2409 7.69256 11.3973C7.53613 11.5538 7.32395 11.6417 7.10272 11.6417C6.88065 11.6392 6.66849 11.5493 6.51231 11.3914C6.35613 11.2335 6.26854 11.0204 6.26855 10.7983C6.27097 10.5787 6.35992 10.3689 6.51609 10.2144C6.67227 10.0599 6.88306 9.97331 7.10272 9.97333ZM16.0586 10.7983C16.0586 10.9588 15.9948 11.1127 15.8814 11.2261C15.7679 11.3396 15.614 11.4033 15.4536 11.4033H13.2169C13.0572 11.401 12.9047 11.3365 12.7917 11.2235C12.6788 11.1106 12.6143 10.958 12.6119 10.7983C12.6143 10.6386 12.6788 10.4861 12.7917 10.3731C12.9047 10.2602 13.0572 10.1957 13.2169 10.1933H15.4536C15.6133 10.1957 15.7658 10.2602 15.8787 10.3731C15.9917 10.4861 16.0562 10.6386 16.0586 10.7983Z" fill="#79797A" fill-opacity="0.2"/>
<path d="M7.09728 12.1417L7.09728 12.1416C6.74355 12.1378 6.4056 11.9946 6.15683 11.7431C5.90805 11.4915 5.76853 11.1521 5.76855 10.7983L5.76855 10.7928L5.76858 10.7928C5.77244 10.4415 5.91471 10.1059 6.1645 9.8589C6.41428 9.61186 6.75141 9.47331 7.10272 9.47333L7.09728 12.1417ZM7.09728 12.1417H7.10272M7.09728 12.1417H7.10272M7.10272 12.1417C7.45656 12.1417 7.79591 12.0011 8.04612 11.7509C8.29632 11.5007 8.43689 11.1613 8.43689 10.8075C8.43689 10.4537 8.29632 10.1143 8.04612 9.8641C7.79592 9.6139 7.45658 9.47334 7.10275 9.47333L7.10272 12.1417ZM6.41522 12.9933H6.40063L6.38607 12.9942C6.08755 13.0116 5.78862 12.9679 5.50761 12.8656C5.2266 12.7634 4.96945 12.6048 4.75193 12.3996C4.53441 12.1944 4.36111 11.9469 4.24266 11.6724C4.12421 11.3978 4.06311 11.1019 4.06311 10.8029C4.06311 10.5039 4.12421 10.208 4.24266 9.93344C4.36111 9.65887 4.53441 9.4114 4.75193 9.20621C4.96945 9.00102 5.2266 8.84244 5.50761 8.7402C5.78862 8.63796 6.08755 8.59421 6.38607 8.61164L6.40063 8.61249H6.41522H15.5819H15.5965L15.611 8.61164C15.9096 8.59421 16.2085 8.63796 16.4895 8.7402C16.7705 8.84244 17.0277 9.00102 17.2452 9.20621C17.4627 9.4114 17.636 9.65887 17.7544 9.93344C17.8729 10.208 17.934 10.5039 17.934 10.8029C17.934 11.1019 17.8729 11.3978 17.7544 11.6724C17.636 11.9469 17.4627 12.1944 17.2452 12.3996C17.0277 12.6048 16.7705 12.7634 16.4895 12.8656C16.2085 12.9679 15.9096 13.0116 15.611 12.9942L15.5965 12.9933H15.5819H6.41522ZM16.5586 10.7983H16.5586L16.5585 10.7909C16.5542 10.5012 16.4372 10.2245 16.2323 10.0196C16.0274 9.81469 15.7507 9.69768 15.461 9.69338L15.461 9.69333H15.4536H13.2169V9.69327L13.2095 9.69338C12.9197 9.69768 12.6431 9.81469 12.4382 10.0196C12.2332 10.2245 12.1162 10.5012 12.1119 10.7909L12.1118 10.7983L12.1119 10.8057C12.1162 11.0955 12.2332 11.3722 12.4382 11.5771C12.6431 11.782 12.9197 11.899 13.2095 11.9033V11.9033H13.2169H15.4536C15.7466 11.9033 16.0277 11.7869 16.2349 11.5797C16.4421 11.3725 16.5586 11.0914 16.5586 10.7983Z" stroke="white" stroke-opacity="0.3"/>
<path d="M13.6658 16.839C13.5428 16.7203 13.3785 16.6539 13.2075 16.6539C13.0365 16.6539 12.8722 16.7203 12.7491 16.839L11.695 17.8932V14.9323C11.695 14.8445 11.6777 14.7575 11.644 14.6763C11.6104 14.5951 11.5611 14.5213 11.499 14.4592C11.4368 14.397 11.3631 14.3477 11.2819 14.3141C11.2007 14.2805 11.1137 14.2632 11.0258 14.2632C10.9379 14.2632 10.8509 14.2805 10.7697 14.3141C10.6885 14.3477 10.6148 14.397 10.5526 14.4592C10.4905 14.5213 10.4412 14.5951 10.4076 14.6763C10.3739 14.7575 10.3566 14.8445 10.3566 14.9323V17.8932L9.28413 16.839C9.23217 16.7512 9.16082 16.6764 9.07552 16.6204C8.99023 16.5644 8.89326 16.5287 8.79202 16.5159C8.69079 16.5031 8.58797 16.5136 8.49144 16.5467C8.3949 16.5798 8.30721 16.6345 8.23506 16.7066C8.16291 16.7788 8.10821 16.8665 8.07515 16.963C8.0421 17.0595 8.03155 17.1623 8.04433 17.2636C8.05711 17.3648 8.09287 17.4618 8.14887 17.5471C8.20488 17.6324 8.27965 17.7037 8.36747 17.7557L10.5583 19.9465C10.6717 20.0731 10.829 20.1517 10.9983 20.1665C11.1761 20.1664 11.3469 20.0974 11.475 19.974L13.6658 17.7832C13.7884 17.6566 13.857 17.4873 13.857 17.3111C13.857 17.1349 13.7884 16.9656 13.6658 16.839Z" fill="#79797A" fill-opacity="0.2"/>
<path d="M11.195 17.8932V19.1003L12.0485 18.2467L13.0985 17.1968C13.1281 17.1693 13.167 17.1539 13.2075 17.1539C13.2462 17.1539 13.2835 17.1679 13.3125 17.1933C13.3411 17.2257 13.357 17.2676 13.357 17.3111C13.357 17.3565 13.3397 17.4002 13.3086 17.4333L11.1257 19.6162C11.0966 19.6433 11.0597 19.6604 11.0204 19.6652C10.9859 19.6576 10.9545 19.6394 10.9306 19.6128L10.9215 19.6026L10.9119 19.593L8.72102 17.4021L8.6764 17.3575L8.62208 17.3254C8.59989 17.3122 8.58098 17.2942 8.56682 17.2726L8.14887 17.5471L8.56682 17.2726C8.55266 17.2511 8.54362 17.2266 8.54039 17.201C8.53716 17.1754 8.53983 17.1494 8.54819 17.125L8.07977 16.9646L8.54819 17.125C8.55654 17.1006 8.57037 17.0784 8.58861 17.0602L8.24018 16.7117L8.58861 17.0602C8.60685 17.0419 8.62902 17.0281 8.65342 17.0197L8.49144 16.5467L8.65342 17.0197C8.67783 17.0114 8.70382 17.0087 8.72941 17.0119C8.75501 17.0152 8.77952 17.0242 8.80108 17.0384C8.82264 17.0525 8.84068 17.0714 8.85382 17.0936L8.88707 17.1498L8.93364 17.1956L10.0061 18.2498L10.8566 19.0857V17.8932V14.9323C10.8566 14.9101 10.861 14.8881 10.8695 14.8676C10.878 14.8471 10.8905 14.8284 10.9062 14.8127C10.9219 14.797 10.9405 14.7846 10.9611 14.7761C10.9816 14.7676 11.0036 14.7632 11.0258 14.7632C11.048 14.7632 11.07 14.7676 11.0905 14.7761C11.1111 14.7846 11.1297 14.797 11.1454 14.8127C11.1611 14.8284 11.1736 14.8471 11.1821 14.8676L11.6389 14.6784L11.1821 14.8676C11.1906 14.8881 11.195 14.9101 11.195 14.9323V17.8932Z" stroke="white" stroke-opacity="0.3"/>
<path d="M6.4157 7.22313H15.5824C16.2971 7.22313 16.9826 6.93919 17.488 6.43378C17.9934 5.92837 18.2774 5.24289 18.2774 4.52813C18.2774 3.81337 17.9934 3.12789 17.488 2.62248C16.9826 2.11707 16.2971 1.83313 15.5824 1.83313L6.4157 1.83313C5.70094 1.83313 5.01546 2.11707 4.51005 2.62248C4.00464 3.12789 3.7207 3.81337 3.7207 4.52813C3.7207 5.24289 4.00464 5.92837 4.51005 6.43378C5.01546 6.93919 5.70094 7.22313 6.4157 7.22313ZM7.1032 3.66646C7.26819 3.66646 7.42946 3.71539 7.56664 3.80705C7.70382 3.89871 7.81074 4.02898 7.87387 4.18141C7.93701 4.33383 7.95353 4.50156 7.92134 4.66337C7.88915 4.82518 7.80971 4.97381 7.69305 5.09047C7.57639 5.20714 7.42775 5.28658 7.26594 5.31877C7.10413 5.35095 6.93641 5.33444 6.78398 5.2713C6.63156 5.20816 6.50128 5.10125 6.40962 4.96407C6.31796 4.82689 6.26904 4.66561 6.26904 4.50063C6.26904 4.2794 6.35692 4.06722 6.51336 3.91079C6.6698 3.75435 6.88197 3.66646 7.1032 3.66646ZM16.059 4.50063C16.059 4.66109 15.9953 4.81497 15.8818 4.92843C15.7684 5.04189 15.6145 5.10563 15.454 5.10563H13.2174C13.0569 5.10563 12.903 5.04189 12.7896 4.92843C12.6761 4.81497 12.6124 4.66109 12.6124 4.50063C12.6124 4.34017 12.6761 4.18629 12.7896 4.07283C12.903 3.95937 13.0569 3.89563 13.2174 3.89563H15.454C15.5359 3.89555 15.6168 3.91206 15.6921 3.94417C15.7673 3.97628 15.8353 4.02331 15.8919 4.08244C15.9484 4.14156 15.9924 4.21155 16.0211 4.28815C16.0499 4.36476 16.0628 4.4464 16.059 4.52813V4.50063Z" fill="#79797A" fill-opacity="0.2"/>
<path d="M17.1345 2.97603L17.488 2.62248L17.1345 2.97603C17.5461 3.38767 17.7774 3.94598 17.7774 4.52813C17.7774 5.11028 17.5461 5.66859 17.1345 6.08023C16.7228 6.49187 16.1645 6.72313 15.5824 6.72313H6.4157C5.83355 6.72313 5.27525 6.49187 4.8636 6.08023C4.45196 5.66859 4.2207 5.11028 4.2207 4.52813C4.2207 3.94598 4.45196 3.38767 4.8636 2.97603C5.27525 2.56439 5.83355 2.33313 6.4157 2.33313H15.5824C16.1645 2.33313 16.7228 2.56439 17.1345 2.97603ZM7.84443 3.39131L7.56664 3.80705L7.84443 3.39131C7.62502 3.24471 7.36708 3.16646 7.1032 3.16646C6.74936 3.16646 6.41001 3.30703 6.15981 3.55723C5.9096 3.80744 5.76904 4.14679 5.76904 4.50063C5.76904 4.7645 5.84728 5.02245 5.99388 5.24185C6.14048 5.46126 6.34885 5.63226 6.59264 5.73324C6.83643 5.83422 7.10468 5.86064 7.36349 5.80916C7.62229 5.75768 7.86001 5.63061 8.0466 5.44403C8.23319 5.25744 8.36025 5.01972 8.41173 4.76091C8.46321 4.50211 8.43679 4.23385 8.33581 3.99007C8.23483 3.74628 8.06383 3.53791 7.84443 3.39131ZM15.8883 3.48428L15.6943 3.93906L15.454 3.89563V3.39563H15.4538H13.2174C12.9243 3.39563 12.6432 3.51205 12.436 3.71928C12.2288 3.92651 12.1124 4.20757 12.1124 4.50063C12.1124 4.79369 12.2288 5.07475 12.436 5.28198C12.6432 5.48921 12.9243 5.60563 13.2174 5.60563H15.454C15.7471 5.60563 16.0282 5.48921 16.2354 5.28198C16.4308 5.08662 16.5454 4.82564 16.5579 4.55084L16.5585 4.55085C16.5653 4.40157 16.5418 4.25247 16.4893 4.11255L16.0211 4.28815L16.4893 4.11255C16.4368 3.97264 16.3565 3.84482 16.2532 3.73683L15.8956 4.07887L16.2532 3.73683C16.1499 3.62884 16.0258 3.54293 15.8883 3.48428Z" stroke="white" stroke-opacity="0.3"/>
</svg>
