<svg width="22" height="22" viewBox="0 0 22 22" fill="none" xmlns="http://www.w3.org/2000/svg">
<path d="M10.9998 12.6685C11.9212 12.6685 12.6681 11.9215 12.6681 11.0001C12.6681 10.0787 11.9212 9.33179 10.9998 9.33179C10.0784 9.33179 9.33142 10.0787 9.33142 11.0001C9.33142 11.9215 10.0784 12.6685 10.9998 12.6685Z" fill="#79797A" fill-opacity="0.2"/>
<path d="M18.6456 11.8984L18.1781 11.6325C17.8481 11.44 17.8115 11.1284 17.8115 11C17.8115 10.8717 17.8481 10.56 18.1781 10.3675L18.6456 10.1017C19.1315 9.81754 19.4798 9.36837 19.6173 8.82754C19.764 8.28671 19.6906 7.71837 19.4156 7.23254L18.4715 5.60087C17.894 4.60171 16.6015 4.25337 15.6023 4.83087L15.1348 5.09671C14.8048 5.28921 14.5115 5.16087 14.4106 5.09671C14.3006 5.04171 14.044 4.84921 14.044 4.47337V3.93254C14.044 2.77754 13.0998 1.83337 11.9448 1.83337H10.0565C8.90146 1.83337 7.95729 2.77754 7.95729 3.93254V4.47337C7.95729 4.84921 7.70064 5.04171 7.5998 5.09671C7.4898 5.16087 7.19645 5.28921 6.86645 5.09671L6.39897 4.83087C5.3998 4.25337 4.11645 4.60171 3.53895 5.60087L2.59478 7.23254C2.00812 8.23171 2.35647 9.5242 3.36481 10.1017L3.82314 10.3675C4.15314 10.56 4.1898 10.8717 4.1898 11C4.1898 11.1284 4.15314 11.44 3.82314 11.6325L3.36481 11.8984C2.35647 12.4759 2.00812 13.7684 2.59478 14.7675L3.53895 16.3992C3.81395 16.885 4.26313 17.2334 4.81313 17.38C5.35396 17.5267 5.91314 17.4442 6.39897 17.1692L6.86645 16.9034C7.19645 16.7109 7.4898 16.8392 7.5998 16.9034C7.70064 16.9584 7.95729 17.1509 7.95729 17.5267V18.0675C7.95729 19.2225 8.90146 20.1667 10.0565 20.1667H11.9448C13.0998 20.1667 14.044 19.2225 14.044 18.0675V17.5267C14.044 17.1509 14.3006 16.9584 14.4106 16.9034C14.5115 16.8392 14.8048 16.7109 15.1348 16.9034L15.6023 17.1692C16.0881 17.4442 16.6473 17.5267 17.1973 17.38C17.7381 17.2334 18.1873 16.885 18.4715 16.3992L19.4156 14.7675C19.6906 14.2817 19.764 13.7134 19.6173 13.1725C19.4798 12.6317 19.1315 12.1825 18.6456 11.8984ZM7.95729 11C7.95729 9.32254 9.32313 7.95671 11.0006 7.95671C12.6781 7.95671 14.044 9.32254 14.044 11C14.044 12.6775 12.6781 14.0434 11.0006 14.0434C9.32313 14.0434 7.95729 12.6775 7.95729 11Z" fill="#79797A" fill-opacity="0.2"/>
<path d="M17.9262 12.0644L17.9262 12.0645L17.931 12.0672L18.3957 12.3314C18.7699 12.5511 19.0299 12.8913 19.1327 13.2957L19.1326 13.2958L19.1347 13.3034C19.2465 13.7156 19.1913 14.1478 18.9815 14.5194C18.9812 14.52 18.9808 14.5206 18.9805 14.5212L18.0399 16.1468C18.0397 16.147 18.0395 16.1473 18.0394 16.1476C17.8201 16.5219 17.4783 16.7855 17.0673 16.8972C16.6499 17.0082 16.2256 16.9473 15.849 16.7343C15.8489 16.7343 15.8487 16.7342 15.8486 16.7341L15.3841 16.47C14.8489 16.1593 14.3622 16.3499 14.1638 16.4682C13.951 16.583 13.544 16.9135 13.544 17.5267V18.0675C13.544 18.9464 12.8237 19.6667 11.9448 19.6667H10.0565C9.1776 19.6667 8.45729 18.9464 8.45729 18.0675V17.5267C8.45729 16.8987 8.03002 16.5708 7.84593 16.4681C7.66688 16.3652 7.16957 16.1493 6.61718 16.4699L6.15267 16.7341C6.1525 16.7342 6.15234 16.7343 6.15217 16.7344C5.77419 16.9482 5.35018 17.0076 4.944 16.8975L4.94196 16.8969C4.52089 16.7846 4.1825 16.5211 3.97408 16.1529L3.9741 16.1529L3.97172 16.1488L3.02755 14.5171L3.02756 14.5171L3.02595 14.5144C2.58145 13.7573 2.84424 12.7727 3.61331 12.3323L3.61567 12.3309L4.074 12.0651L4.07508 12.0644C4.62864 11.7415 4.6898 11.2067 4.6898 11C4.6898 10.7934 4.62864 10.2586 4.07508 9.93565L4.074 9.93502L3.61567 9.66919L3.61567 9.66918L3.6133 9.66783C2.84424 9.22736 2.58145 8.24275 3.02595 7.4857L3.02755 7.48296L3.97172 5.8513L3.97184 5.85108C4.41225 5.08911 5.39056 4.82553 6.14877 5.26377L6.15181 5.26551L6.61714 5.53012C7.16958 5.85078 7.66695 5.63483 7.84597 5.53193C8.03008 5.42928 8.45729 5.10132 8.45729 4.47337V3.93254C8.45729 3.05369 9.1776 2.33337 10.0565 2.33337H11.9448C12.8237 2.33337 13.544 3.05369 13.544 3.93254V4.47337C13.544 5.0866 13.951 5.41704 14.1638 5.53184C14.3622 5.65014 14.8489 5.8408 15.3841 5.53013L15.8494 5.26551L15.8495 5.26552L15.8525 5.26377C16.6116 4.82501 17.5987 5.09002 18.0386 5.85108L18.0387 5.8513L18.9805 7.47884C18.9808 7.47945 18.9812 7.48006 18.9815 7.48067C19.1913 7.85234 19.2465 8.28449 19.1347 8.69667L19.1347 8.69665L19.1327 8.70434C19.0299 9.10874 18.7699 9.44894 18.3957 9.66866L17.931 9.93289L17.931 9.93287L17.9262 9.93565C17.3726 10.2586 17.3115 10.7934 17.3115 11C17.3115 11.2067 17.3726 11.7415 17.9262 12.0644ZM11.0006 7.45671C9.04699 7.45671 7.45729 9.0464 7.45729 11C7.45729 12.9537 9.04699 14.5434 11.0006 14.5434C12.9543 14.5434 14.544 12.9537 14.544 11C14.544 9.0464 12.9543 7.45671 11.0006 7.45671Z" stroke="white" stroke-opacity="0.3"/>
</svg>
