<svg width="22" height="22" viewBox="0 0 22 22" fill="none" xmlns="http://www.w3.org/2000/svg">
<path d="M11.0013 1.83313C5.95043 1.83313 1.83459 5.94896 1.83459 10.9998C1.83459 16.0506 5.95043 20.1665 11.0013 20.1665C16.0521 20.1665 20.1679 16.0506 20.1679 10.9998C20.1679 5.94896 16.0521 1.83313 11.0013 1.83313ZM10.8179 6.20563C12.4496 6.20563 13.7696 7.52563 13.7696 9.15729C13.7696 10.7798 12.4496 12.109 10.8179 12.109C9.19543 12.109 7.87542 10.7798 7.87542 9.15729C7.87542 7.52563 9.19543 6.20563 10.8179 6.20563ZM16.4371 16.5731C16.0246 16.9856 15.5571 17.3431 15.0621 17.6456C13.8796 18.379 12.4863 18.7915 11.0013 18.7915C9.51626 18.7915 8.12293 18.379 6.94043 17.6456C6.44544 17.3431 5.97793 16.9856 5.56543 16.5731V16.399C5.56543 14.5198 7.09626 12.989 8.96626 12.989H13.0363C14.9063 12.989 16.4371 14.5198 16.4371 16.399V16.5731Z" fill="#79797A" fill-opacity="0.2"/>
<path d="M16.7906 16.9267L16.9371 16.7802V16.5731V16.399C16.9371 14.2445 15.1833 12.489 13.0363 12.489H11.7222C13.1912 12.0901 14.2696 10.7438 14.2696 9.15729C14.2696 7.24949 12.7257 5.70563 10.8179 5.70563C8.91828 5.70563 7.37542 7.2505 7.37542 9.15729C7.37542 10.743 8.45323 12.09 9.91742 12.489H8.96626C6.81924 12.489 5.06543 14.2445 5.06543 16.399V16.5731V16.7802L5.21188 16.9267C5.65519 17.37 6.15431 17.7511 6.67848 18.0715C7.93933 18.853 9.42328 19.2915 11.0013 19.2915C12.5792 19.2915 14.0632 18.853 15.324 18.0715C15.8482 17.7511 16.3473 17.37 16.7906 16.9267ZM2.33459 10.9998C2.33459 6.22511 6.22657 2.33313 11.0013 2.33313C15.776 2.33313 19.6679 6.22511 19.6679 10.9998C19.6679 15.7745 15.776 19.6665 11.0013 19.6665C6.22657 19.6665 2.33459 15.7745 2.33459 10.9998Z" stroke="white" stroke-opacity="0.3"/>
</svg>
