<svg width="22" height="22" viewBox="0 0 22 22" fill="none" xmlns="http://www.w3.org/2000/svg">
<path d="M8.10487 10.6239C10.0115 10.6239 11.5607 9.07478 11.5607 7.16811C11.5607 5.26144 10.0115 3.71228 8.10487 3.71228C6.1982 3.71228 4.64905 5.26144 4.64905 7.16811C4.64905 9.07478 6.1982 10.6239 8.10487 10.6239Z" fill="#79797A" fill-opacity="0.2"/>
<path d="M11.0607 7.16811C11.0607 8.79863 9.7354 10.1239 8.10487 10.1239C6.47435 10.1239 5.14905 8.79864 5.14905 7.16811C5.14905 5.53759 6.47435 4.21228 8.10487 4.21228C9.7354 4.21228 11.0607 5.53759 11.0607 7.16811Z" stroke="white" stroke-opacity="0.3"/>
<path d="M14.8146 16.0232V17.5998C14.8146 17.9757 14.5121 18.2873 14.1271 18.2873H2.52209C2.14626 18.2873 1.83459 17.9757 1.83459 17.5998V16.0232C1.83459 13.814 3.63126 12.0173 5.84042 12.0173H10.8088C11.2579 12.0173 11.6888 12.0907 12.0921 12.2373C12.0921 12.2373 12.0921 12.2282 12.1013 12.2373C13.6779 12.769 14.8146 14.2632 14.8146 16.0232Z" fill="#79797A" fill-opacity="0.2"/>
<path d="M11.9212 12.7072L12.1771 12.8003C13.4323 13.3284 14.3146 14.5728 14.3146 16.0232V17.5998C14.3146 17.7039 14.2316 17.7873 14.1271 17.7873H2.52209C2.4224 17.7873 2.33459 17.6995 2.33459 17.5998V16.0232C2.33459 14.0901 3.9074 12.5173 5.84042 12.5173H10.8088C11.203 12.5173 11.5757 12.5816 11.9212 12.7072Z" stroke="white" stroke-opacity="0.3"/>
<path d="M14.8146 16.0232V17.5998C14.8146 17.9757 14.5121 18.2873 14.1271 18.2873H2.52209C2.14626 18.2873 1.83459 17.9757 1.83459 17.5998V16.0232C1.83459 13.814 3.63126 12.0173 5.84042 12.0173H10.8088C11.2579 12.0173 11.6888 12.0907 12.0921 12.2373C12.0921 12.2373 12.0921 12.2282 12.1013 12.2373C13.6779 12.769 14.8146 14.2632 14.8146 16.0232Z" fill="#79797A" fill-opacity="0.2"/>
<path d="M20.1671 15.2349V16.5274C20.1671 16.8299 19.9196 17.0774 19.6171 17.0774H16.1888V16.0232C16.1888 15.0974 15.9504 14.2174 15.5379 13.4565C15.3638 13.1449 15.1713 12.8515 14.9513 12.5857C14.7954 12.4115 14.6396 12.2374 14.4746 12.0907H17.023C17.1238 12.0907 17.2155 12.0907 17.3071 12.109C17.4263 12.1182 17.5455 12.1365 17.6646 12.164C18.3613 12.3107 18.9663 12.6957 19.4154 13.209C19.4888 13.2915 19.5621 13.3832 19.6263 13.484C19.6355 13.484 19.6355 13.484 19.6263 13.4932C19.8005 13.7499 19.938 14.0249 20.0296 14.3274C20.0571 14.4282 20.0846 14.529 20.1029 14.6299C20.1488 14.8224 20.1671 15.024 20.1671 15.2349Z" fill="#79797A" fill-opacity="0.2"/>
<path d="M19.6171 16.5774H16.6888V16.0232C16.6888 15.0114 16.4283 14.0497 15.9775 13.2182L15.9775 13.2182L15.9744 13.2126C15.8552 12.9992 15.7261 12.7907 15.5842 12.5907H17.023C17.1328 12.5907 17.1742 12.5923 17.2091 12.5993L17.2387 12.6052L17.2688 12.6076C17.3624 12.6148 17.4568 12.6292 17.5522 12.6512L17.5522 12.6513L17.5616 12.6533C18.1416 12.7754 18.6538 13.0979 19.0392 13.5383L19.0391 13.5383L19.0417 13.5412C19.0638 13.5661 19.0851 13.591 19.1054 13.6161L19.2125 13.7739C19.3604 13.9919 19.4737 14.2195 19.5492 14.466C19.5767 14.5671 19.5975 14.6451 19.611 14.7193L19.6134 14.7326L19.6165 14.7457C19.6512 14.8911 19.6671 15.0524 19.6671 15.2349V16.5274C19.6671 16.5396 19.6626 16.5517 19.652 16.5622C19.6414 16.5728 19.6293 16.5774 19.6171 16.5774ZM19.6263 13.984C19.6345 13.984 19.6315 13.9842 19.6224 13.984H19.6263Z" stroke="white" stroke-opacity="0.3"/>
<path d="M15.0168 10.4956C16.5306 10.4956 17.7577 9.26847 17.7577 7.75475C17.7577 6.24103 16.5306 5.01392 15.0168 5.01392C13.5031 5.01392 12.276 6.24103 12.276 7.75475C12.276 9.26847 13.5031 10.4956 15.0168 10.4956Z" fill="#79797A" fill-opacity="0.2"/>
<path d="M17.2577 7.75475C17.2577 8.99233 16.2544 9.99558 15.0168 9.99558C13.7793 9.99558 12.776 8.99232 12.776 7.75475C12.776 6.51717 13.7793 5.51392 15.0168 5.51392C16.2544 5.51392 17.2577 6.51717 17.2577 7.75475Z" stroke="white" stroke-opacity="0.3"/>
</svg>
